<svg xmlns="http://www.w3.org/2000/svg" width="480" height="270"><path d="M472.832 8.158l-3.123 254.744-462.153.219L8.624 8.906z" fill="#ffce31" stroke="#fc6603" stroke-width="10.176"/><path d="M117.104 12.16l-.911 247.452z" fill="#ffce31" stroke="#fc6603" stroke-width="10.163"/><path d="M272.718 54.118c-64.997 2.062-94.068.562-141.05.836z" fill="#ffce31" stroke="#fc6603" stroke-width="8.91"/><path d="M261.657 34.519c-60.209 2.061-87.137.56-130.657.836z" fill="#ffce31" stroke="#fc6603" stroke-width="8.575"/><path d="M261.702 74.58c-60.077 2.067-86.946.562-130.37.838z" fill="#ffce31" stroke="#fc6603" stroke-width="8.577"/><path d="M229.183 92.888c-38.477 2.13-55.686.58-83.498.864z" fill="#ffce31" stroke="#fc6603" stroke-width="6.968"/><path d="M262.825 109.983c-48.242 2.091-69.818.569-104.688.848z" fill="#ffce31" stroke="#fc6603" stroke-width="7.73"/><path d="M289.928 128.214c-60.355 2.062-87.348.561-130.973.836z" fill="#ffce31" stroke="#fc6603" stroke-width="8.584"/><path d="M280.822 147.008c-62.199 2.058-90.017.56-134.975.835z" fill="#ffce31" stroke="#fc6603" stroke-width="8.706"/><path d="M244.035 166.932c-50.084 2.087-72.483.568-108.684.847z" fill="#ffce31" stroke="#fc6603" stroke-width="7.867"/><path d="M225.783 186.287c-41.911 2.114-60.656.575-90.95.858z" fill="#ffce31" stroke="#fc6603" stroke-width="7.244"/><path d="M247.422 204.51c-41.647 2.115-60.274.576-90.377.858z" fill="#ffce31" stroke="#fc6603" stroke-width="7.222"/><path d="M255.972 225.014c-45.07 2.106-65.226.573-97.802.854z" fill="#ffce31" stroke="#fc6603" stroke-width="7.496"/><path d="M224.643 244.944c-41.385 2.115-59.894.575-89.807.858z" fill="#ffce31" stroke="#fc6603" stroke-width="7.201"/><path d="M66.684 29.081c-21.873 2.221-31.655.604-47.465.901zM66.334 42.179c-21.873 2.22-31.656.604-47.466.9zM66.903 56.416c-21.873 2.22-31.655.604-47.465.9zM77.724 71.222c-21.873 2.221-31.656.605-47.466.901zM78.863 85.46c-21.873 2.22-31.656.604-47.466.9zM78.293 97.988c-21.873 2.221-31.656.604-47.466.9zM67.473 112.225c-21.873 2.221-31.656.604-47.466.9zM68.042 124.754c-21.873 2.22-31.655.604-47.465.9zM80.002 136.143c-21.874 2.221-31.656.604-47.466.901zM90.822 146.963c-21.873 2.222-31.656.605-47.466.901zM91.96 160.062c-21.872 2.22-31.655.604-47.465.9z" fill="#ffce31" stroke="#fc6603" stroke-width="5.364"/></svg>