<svg xmlns="http://www.w3.org/2000/svg" width="50" height="50" viewBox="0 0 50 50">
  <path fill="#fc6603" stroke="#ffce31" stroke-width="1" d="m 25.434646,3.2979587 c 11.841083,0.2744551 21.219117,10.0975363 20.944601,21.9412523 -0.219595,9.474183 -6.549542,17.36845 -15.136399,20.007803 -1.077419,0.171278 -1.453045,-0.499937 -1.439864,-1.068625 0.01172,-0.508133 0.06148,-1.857024 0.113479,-3.645776 5.934618,1.433594 7.289765,-2.707615 7.289765,-2.707615 1.03285,-2.453553 2.45406,-3.080486 2.45406,-3.080486 1.977813,-1.285761 -0.117205,-1.307977 -0.117205,-1.307977 -2.155865,0.102813 -3.335665,2.13412 -3.335665,2.13412 -1.988685,3.232204 -5.073467,2.213699 -6.2824,1.637758 -0.162695,-1.390691 -0.693679,-2.348687 -1.294707,-2.898684 4.773986,-0.430681 9.822938,-2.154982 10.013394,-10.371995 0.05425,-2.340573 -0.737304,-4.274003 -2.074248,-5.805185 0.233728,-0.537233 1.020127,-2.700149 -0.07777,-5.679883 0,0 -1.78748,-0.618326 -5.948459,2.061707 -1.698998,-0.514858 -3.528547,-0.795662 -5.351588,-0.84582 -1.820774,-0.0343 -3.661368,0.161438 -5.385029,0.596964 -4.029707,-2.869878 -5.839967,-2.33494 -5.839967,-2.33494 -1.238724,2.925576 -0.553381,5.122602 -0.344795,5.670087 -1.409083,1.467534 -2.2841,3.362337 -2.338351,5.70291 -0.190943,8.238075 4.781237,10.166989 9.546182,10.808229 -0.785445,0.644303 -1.501622,1.936915 -1.548,3.937853 -0.06642,2.865819 -0.0937,5.179358 -0.110002,5.882318 -0.0133,0.573954 -0.414481,1.232433 -1.498297,0.99789 C 9.2247356,41.890389 3.2724818,33.716713 3.4920161,24.245162 3.7665318,12.401447 13.590929,3.023443 25.434646,3.2979587" />
</svg>