<?xml version="1.0" encoding="UTF-8" standalone="no"?>
<!-- Copyright (c) 2016 Google Inc. All rights reserved. -->

<svg
   xmlns:dc="http://purl.org/dc/elements/1.1/"
   xmlns:cc="http://creativecommons.org/ns#"
   xmlns:rdf="http://www.w3.org/1999/02/22-rdf-syntax-ns#"
   xmlns:svg="http://www.w3.org/2000/svg"
   xmlns="http://www.w3.org/2000/svg"
   xmlns:sodipodi="http://sodipodi.sourceforge.net/DTD/sodipodi-0.dtd"
   xmlns:inkscape="http://www.inkscape.org/namespaces/inkscape"
   width="118px"
   height="120px"
   viewBox="0 0 118 120"
   version="1.1"
   id="svg2"
   inkscape:version="0.91 r13725"
   sodipodi:docname="google_buttn.svg">
  <metadata
     id="metadata25">
    <rdf:RDF>
      <cc:Work
         rdf:about="">
        <dc:format>image/svg+xml</dc:format>
        <dc:type
           rdf:resource="http://purl.org/dc/dcmitype/StillImage" />
      </cc:Work>
    </rdf:RDF>
  </metadata>
  <sodipodi:namedview
     pagecolor="#ffffff"
     bordercolor="#666666"
     borderopacity="1"
     objecttolerance="10"
     gridtolerance="10"
     guidetolerance="10"
     inkscape:pageopacity="0"
     inkscape:pageshadow="2"
     inkscape:window-width="1861"
     inkscape:window-height="1056"
     id="namedview23"
     showgrid="false"
     inkscape:zoom="3.9333333"
     inkscape:cx="52.141335"
     inkscape:cy="77.704765"
     inkscape:window-x="1979"
     inkscape:window-y="24"
     inkscape:window-maximized="1"
     inkscape:current-layer="logo_googleg_48dp" />
  <!-- Generator: Sketch 3.6 (26304) - http://www.bohemiancoding.com/sketch -->
  <title
     id="title4">google_buttn</title>
  <desc
     id="desc6">Created with Sketch.</desc>
  <defs
     id="defs8" />
  <g
     id="Page-1"
     stroke="none"
     stroke-width="1"
     fill="none"
     fill-rule="evenodd">
    <g
       id="Artboard-1"
       transform="translate(-332.000000, -639.000000)">
      <g
         id="google_buttn"
         transform="translate(332.000000, 639.000000)">
        <g
           id="logo_googleg_48dp">
          <path
             d="M117.6,61.3636364 C117.6,57.1090909 117.218182,53.0181818 116.509091,49.0909091 L60,49.0909091 L60,72.3 L92.2909091,72.3 C90.9,79.8 86.6727273,86.1545455 80.3181818,90.4090909 L80.3181818,105.463636 L99.7090909,105.463636 C111.054545,95.0181818 117.6,79.6363636 117.6,61.3636364 L117.6,61.3636364 Z"
             id="Shape"
             fill="#4285F4"
             style="fill:#ffffff;fill-opacity:1" />
          <path
             d="M60,120 C76.2,120 89.7818182,114.627273 99.7090909,105.463636 L80.3181818,90.4090909 C74.9454545,94.0090909 68.0727273,96.1363636 60,96.1363636 C44.3727273,96.1363636 31.1454545,85.5818182 26.4272727,71.4 L6.38181818,71.4 L6.38181818,86.9454545 C16.2545455,106.554545 36.5454545,120 60,120 L60,120 Z"
             id="path15"
             fill="#34A853"
             style="fill:#ffffff;fill-opacity:1" />
          <path
             d="M26.4272727,71.4 C25.2272727,67.8 24.5454545,63.9545455 24.5454545,60 C24.5454545,56.0454545 25.2272727,52.2 26.4272727,48.6 L26.4272727,33.0545455 L6.38181818,33.0545455 C2.31818182,41.1545455 0,50.3181818 0,60 C0,69.6818182 2.31818182,78.8454545 6.38181818,86.9454545 L26.4272727,71.4 L26.4272727,71.4 Z"
             id="path17"
             fill="#FBBC05"
             style="fill:#ffffff;fill-opacity:1" />
          <path
             d="M60,23.8636364 C68.8090909,23.8636364 76.7181818,26.8909091 82.9363636,32.8363636 L100.145455,15.6272727 C89.7545455,5.94545455 76.1727273,0 60,0 C36.5454545,0 16.2545455,13.4454545 6.38181818,33.0545455 L26.4272727,48.6 C31.1454545,34.4181818 44.3727273,23.8636364 60,23.8636364 L60,23.8636364 Z"
             id="path19"
             fill="#EA4335"
             style="fill:#ffffff;fill-opacity:1" />
          <path
             d="M0,0 L120,0 L120,120 L0,120 L0,0 Z"
             id="path21" />
        </g>
      </g>
    </g>
  </g>
</svg>
